<?xml version="1.0" encoding="UTF-8" standalone="no"?><!DOCTYPE svg PUBLIC "-//W3C//DTD SVG 1.1//EN" "http://www.w3.org/Graphics/SVG/1.1/DTD/svg11.dtd"><svg width="100%" height="100%" viewBox="0 0 5225 5225" version="1.1" xmlns="http://www.w3.org/2000/svg" xmlns:xlink="http://www.w3.org/1999/xlink" xml:space="preserve" xmlns:serif="http://www.serif.com/" style="fill-rule:evenodd;clip-rule:evenodd;stroke-linejoin:round;stroke-miterlimit:2;"><rect x="0" y="0" width="5225" height="5225" style="fill:#10141f;fill-rule:nonzero;"/><path d="M2609.107,339.593c8.443,-0.01 16.885,-0.037 25.328,-0.066c100.643,-0.139 199.204,7.342 297.596,28.963c5.747,1.212 11.495,2.419 17.244,3.621c16.946,3.578 33.844,7.345 50.724,11.222c2.782,0.637 5.565,1.275 8.431,1.932c41.186,9.555 80.954,21.669 120.735,36.089c2.757,0.99 5.514,1.981 8.354,3.001c78.552,28.249 155.082,59.23 228.208,99.713c9.057,4.98 18.175,9.822 27.321,14.636c116.706,62.133 222.298,142.922 319.45,232.129c2.353,2.143 4.706,4.286 7.131,6.494c33.369,30.427 65.52,61.262 95.365,95.205c6.276,7.133 12.608,14.214 18.939,21.299c129.645,146.139 230.791,319.443 300.222,501.654c2.94,7.637 6.02,15.22 9.121,22.793c13.911,34.274 23.848,69.427 33.691,105.029c4.491,16.231 9.436,32.263 14.551,48.307c9.471,30.611 16.496,61.636 23.063,92.969c0.625,2.956 1.25,5.912 1.893,8.958c11.945,56.858 21,113.837 27.796,171.558c0.967,8.205 1.973,16.405 3.04,24.597c52.42,403.08 -70.742,841.776 -334.812,1226.137c-1.712,2.344 -3.424,4.688 -5.188,7.102c-30.744,42.035 -63.407,82.182 -98.49,120.664c-7.95,8.771 -15.699,17.675 -23.405,26.66c-13.606,15.653 -28.226,30.118 -42.985,44.678c-8.181,8.298 -15.852,16.783 -23.421,25.635c-14.613,17.055 -30.499,32.645 -46.468,48.421c-11.161,11.306 -21.484,23.122 -31.803,35.189c-11.363,12.762 -23.631,24.576 -35.791,36.572c-8.27,8.388 -16.035,16.972 -23.698,25.911c-13.549,15.807 -28.155,30.308 -42.969,44.922c-8.27,8.388 -16.035,16.972 -23.698,25.911c-10.612,12.381 -21.724,23.964 -33.333,35.417c-11.352,11.199 -22.219,22.492 -32.552,34.635c-12.76,14.902 -26.418,28.672 -40.365,42.448c-13.599,13.433 -26.951,26.813 -39.323,41.406c-13.178,15.509 -27.468,29.713 -41.927,44.01c-21.233,20.994 -21.233,20.994 -41.146,43.229c-17.032,20.113 -36.078,38.261 -54.788,56.79c-15.524,15.431 -30.365,31.076 -44.479,47.816c-12.429,13.938 -25.872,26.865 -39.154,39.984c-13.979,13.874 -27.089,28.179 -39.85,43.186c-9.77,10.932 -20.151,21.202 -30.583,31.494c-12.722,12.551 -25.17,25.148 -36.719,38.802c-13.985,16.423 -29.211,31.454 -44.531,46.615c-22.562,22.269 -22.562,22.269 -43.75,45.833c-16.047,18.994 -33.944,36.129 -51.602,53.604c-14.885,14.79 -29.006,29.861 -42.555,45.891c-13.447,14.994 -27.952,28.943 -42.27,43.1c-11.931,11.849 -23.527,23.733 -34.407,36.571c-15.261,18.008 -32.128,34.319 -48.898,50.9c-14.586,14.485 -28.391,29.318 -41.678,45.014c-12.809,14.399 -26.723,27.708 -40.511,41.162c-8.668,8.052 -8.668,8.052 -12.663,17.09l-8.333,0c-2.75,5.5 -5.5,11 -8.333,16.667c-14.999,0 -18.152,-4.196 -28.415,-14.392c-2.031,-2.083 -4.063,-4.166 -6.156,-6.312c-3.199,-3.211 -3.199,-3.211 -6.463,-6.487c-4.525,-4.553 -9.036,-9.122 -13.532,-13.704c-6.78,-6.908 -13.602,-13.773 -20.435,-20.63c-20.651,-20.808 -40.813,-41.854 -59.884,-64.136c-12.679,-14.344 -26.455,-27.608 -40.116,-41.007c-16.494,-16.178 -32.711,-32.348 -47.786,-49.87c-15.803,-18.347 -32.862,-35.255 -50.13,-52.214c-17.18,-16.873 -34.167,-33.682 -49.87,-51.953c-16.43,-19.096 -34.26,-36.644 -52.214,-54.297c-20.708,-20.361 -40.737,-40.879 -59.668,-62.907c-11.454,-12.972 -23.805,-24.993 -36.165,-37.093c-17.642,-17.439 -34.66,-34.987 -50.684,-53.939c-12.495,-13.984 -25.98,-26.973 -39.318,-40.148c-11.35,-11.265 -22.305,-22.612 -32.655,-34.82c-13.178,-15.509 -27.468,-29.713 -41.927,-44.01c-28.281,-27.965 -28.281,-27.965 -41.146,-43.229c-14.49,-17.111 -30.436,-32.673 -46.354,-48.438c-18.099,-17.924 -35.669,-35.846 -52.083,-55.339c-15.128,-16.783 -31.405,-32.476 -47.534,-48.291c-13.112,-12.934 -25.73,-26.032 -37.752,-39.99c-15.175,-17.598 -31.465,-33.866 -48.047,-50.13c-19.328,-18.958 -37.815,-38.209 -55.485,-58.724c-10.814,-12.244 -22.419,-23.615 -34.098,-35.026c-14.293,-14.116 -28.429,-28.134 -41.406,-43.49c-13.784,-16.272 -28.865,-31.105 -44.01,-46.094c-17.542,-17.36 -34.468,-34.804 -50.407,-53.662c-11.183,-12.469 -23.104,-24.146 -35.01,-35.921c-19.652,-19.481 -38.373,-39.282 -56.25,-60.417c-3.566,-4.028 -7.133,-8.057 -10.807,-12.207c-237.798,-269.729 -390.042,-638.568 -418.359,-996.126c-0.241,-2.972 -0.482,-5.943 -0.73,-9.005c-29.369,-385.371 61.286,-771.13 296.564,-1140.995c3.44,-5.15 6.874,-10.304 10.303,-15.462c36.349,-54.314 76.773,-104.93 121.305,-152.767c7.995,-8.694 15.734,-17.501 23.438,-26.449c17.315,-19.847 35.702,-38.535 54.329,-57.145c3.499,-3.499 6.998,-6.997 10.603,-10.602c21.145,-20.951 42.453,-40.622 65.96,-58.897c10.163,-8.057 19.471,-16.66 28.906,-25.553c147.176,-133.691 339.979,-226.478 526.562,-289.583c3.601,-1.225 7.202,-2.451 10.912,-3.713c19.809,-6.593 39.451,-11.991 59.882,-16.275c12.777,-2.793 25.241,-6.58 37.8,-10.22c130.957,-35.594 261.251,-47.778 396.607,-47.907Z" style="fill:#1b1f28;fill-rule:nonzero;"/><path d="M2609.107,339.593c8.443,-0.01 16.885,-0.037 25.328,-0.066c100.643,-0.139 199.204,7.342 297.596,28.963c5.747,1.212 11.495,2.419 17.244,3.621c16.946,3.578 33.844,7.345 50.724,11.222c2.782,0.637 5.565,1.275 8.431,1.932c41.186,9.555 80.954,21.669 120.735,36.089c2.757,0.99 5.514,1.981 8.354,3.001c78.552,28.249 155.082,59.23 228.208,99.713c9.057,4.98 18.175,9.822 27.321,14.636c116.706,62.133 222.298,142.922 319.45,232.129c2.353,2.143 4.706,4.286 7.131,6.494c33.369,30.427 65.52,61.262 95.365,95.205c6.276,7.133 12.608,14.214 18.939,21.299c129.645,146.139 230.791,319.443 300.222,501.654c2.94,7.637 6.02,15.22 9.121,22.793c13.911,34.274 23.848,69.427 33.691,105.029c4.491,16.231 9.436,32.263 14.551,48.307c9.471,30.611 16.496,61.636 23.063,92.969c0.625,2.956 1.25,5.912 1.893,8.958c11.945,56.858 21,113.837 27.796,171.558c0.967,8.205 1.973,16.405 3.04,24.597c52.42,403.08 -70.742,841.776 -334.812,1226.137c-1.712,2.344 -3.424,4.688 -5.188,7.102c-30.744,42.035 -63.407,82.182 -98.49,120.664c-7.95,8.771 -15.699,17.675 -23.405,26.66c-13.606,15.653 -28.226,30.118 -42.985,44.678c-8.181,8.298 -15.852,16.783 -23.421,25.635c-14.613,17.055 -30.499,32.645 -46.468,48.421c-11.161,11.306 -21.484,23.122 -31.803,35.189c-11.363,12.762 -23.631,24.576 -35.791,36.572c-8.27,8.388 -16.035,16.972 -23.698,25.911c-13.549,15.807 -28.155,30.308 -42.969,44.922c-8.27,8.388 -16.035,16.972 -23.698,25.911c-10.612,12.381 -21.724,23.964 -33.333,35.417c-11.352,11.199 -22.219,22.492 -32.552,34.635c-12.76,14.902 -26.418,28.672 -40.365,42.448c-13.599,13.433 -26.951,26.813 -39.323,41.406c-13.178,15.509 -27.468,29.713 -41.927,44.01c-21.233,20.994 -21.233,20.994 -41.146,43.229c-17.032,20.113 -36.078,38.261 -54.788,56.79c-15.524,15.431 -30.365,31.076 -44.479,47.816c-12.429,13.938 -25.872,26.865 -39.154,39.984c-13.979,13.874 -27.089,28.179 -39.85,43.186c-9.77,10.932 -20.151,21.202 -30.583,31.494c-12.722,12.551 -25.17,25.148 -36.719,38.802c-13.985,16.423 -29.211,31.454 -44.531,46.615c-22.562,22.269 -22.562,22.269 -43.75,45.833c-16.047,18.994 -33.944,36.129 -51.602,53.604c-14.885,14.79 -29.006,29.861 -42.555,45.891c-13.447,14.994 -27.952,28.943 -42.27,43.1c-11.931,11.849 -23.527,23.733 -34.407,36.571c-15.261,18.008 -32.128,34.319 -48.898,50.9c-14.586,14.485 -28.391,29.318 -41.678,45.014c-12.809,14.399 -26.723,27.708 -40.511,41.162c-8.668,8.052 -8.668,8.052 -12.663,17.09l-8.333,0c-2.75,5.5 -5.5,11 -8.333,16.667c-14.999,0 -18.152,-4.196 -28.415,-14.392c-2.031,-2.083 -4.063,-4.166 -6.156,-6.312c-3.199,-3.211 -3.199,-3.211 -6.463,-6.487c-4.525,-4.553 -9.036,-9.122 -13.532,-13.704c-6.78,-6.908 -13.602,-13.773 -20.435,-20.63c-20.651,-20.808 -40.813,-41.854 -59.884,-64.136c-12.679,-14.344 -26.455,-27.608 -40.116,-41.007c-16.494,-16.178 -32.711,-32.348 -47.786,-49.87c-15.803,-18.347 -32.862,-35.255 -50.13,-52.214c-17.18,-16.873 -34.167,-33.682 -49.87,-51.953c-16.43,-19.096 -34.26,-36.644 -52.214,-54.297c-20.708,-20.361 -40.737,-40.879 -59.668,-62.907c-11.454,-12.972 -23.805,-24.993 -36.165,-37.093c-17.642,-17.439 -34.66,-34.987 -50.684,-53.939c-12.495,-13.984 -25.98,-26.973 -39.318,-40.148c-11.35,-11.265 -22.305,-22.612 -32.655,-34.82c-13.178,-15.509 -27.468,-29.713 -41.927,-44.01c-28.281,-27.965 -28.281,-27.965 -41.146,-43.229c-14.49,-17.111 -30.436,-32.673 -46.354,-48.438c-18.099,-17.924 -35.669,-35.846 -52.083,-55.339c-15.128,-16.783 -31.405,-32.476 -47.534,-48.291c-13.112,-12.934 -25.73,-26.032 -37.752,-39.99c-15.175,-17.598 -31.465,-33.866 -48.047,-50.13c-19.328,-18.958 -37.815,-38.209 -55.485,-58.724c-10.814,-12.244 -22.419,-23.615 -34.098,-35.026c-14.293,-14.116 -28.429,-28.134 -41.406,-43.49c-13.784,-16.272 -28.865,-31.105 -44.01,-46.094c-17.542,-17.36 -34.468,-34.804 -50.407,-53.662c-11.183,-12.469 -23.104,-24.146 -35.01,-35.921c-19.652,-19.481 -38.373,-39.282 -56.25,-60.417c-3.566,-4.028 -7.133,-8.057 -10.807,-12.207c-237.798,-269.729 -390.042,-638.568 -418.359,-996.126c-0.241,-2.972 -0.482,-5.943 -0.73,-9.005c-29.369,-385.371 61.286,-771.13 296.564,-1140.995c3.44,-5.15 6.874,-10.304 10.303,-15.462c36.349,-54.314 76.773,-104.93 121.305,-152.767c7.995,-8.694 15.734,-17.501 23.438,-26.449c17.315,-19.847 35.702,-38.535 54.329,-57.145c3.499,-3.499 6.998,-6.997 10.603,-10.602c21.145,-20.951 42.453,-40.622 65.96,-58.897c10.163,-8.057 19.471,-16.66 28.906,-25.553c147.176,-133.691 339.979,-226.478 526.562,-289.583c3.601,-1.225 7.202,-2.451 10.912,-3.713c19.809,-6.593 39.451,-11.991 59.882,-16.275c12.777,-2.793 25.241,-6.58 37.8,-10.22c130.957,-35.594 261.251,-47.778 396.607,-47.907Zm-213.274,493.74c-4.795,0.915 -9.59,1.83 -14.53,2.773c-192.211,37.503 -372.073,122.149 -522.97,247.227c-2.253,1.83 -4.506,3.66 -6.828,5.546c-57.98,47.156 -114.172,99.91 -160.05,159.037c-8.899,11.414 -18.392,22.174 -27.913,33.073c-103.04,123.776 -179.515,283.875 -217.708,439.844c-1.127,4.461 -2.255,8.923 -3.416,13.519c-9.316,37.017 -17.866,74.137 -25.751,111.481c-1.448,6.84 -1.448,6.84 -2.926,13.818c-26.588,132.242 -24.505,282.669 -1.241,415.348c0.896,5.19 1.793,10.381 2.716,15.729c20.383,115.268 53.875,229.019 105.617,334.271c2.667,5.598 5.33,11.197 7.992,16.797c40.316,83.749 90.53,162.009 150.342,233.203c1.713,2.061 3.427,4.122 5.192,6.246c25.495,30.612 51.971,60.232 79.183,89.327c2.704,2.906 5.409,5.812 8.195,8.806c15.906,16.857 32.409,32.496 50.006,47.579c8.868,7.615 17.371,15.585 25.913,23.563c159.589,143.508 365.534,247.047 577.344,282.812c4.758,0.813 4.758,0.813 9.613,1.642c48.122,8.102 95.769,13.619 144.554,15.025c5.344,0.172 10.688,0.344 16.195,0.521c271.132,4.249 531.856,-93.807 742.139,-263.021c4.275,-3.416 8.551,-6.832 12.956,-10.352c33.371,-27.334 64.037,-57.435 94.596,-87.826c2.034,-2.012 4.067,-4.023 6.162,-6.096c27.91,-27.677 53.62,-56.51 77.952,-87.394c3.557,-4.436 3.557,-4.436 7.185,-8.961c77.517,-97.086 138.394,-204.962 184.482,-320.206c1.168,-2.862 2.336,-5.724 3.54,-8.673c36.131,-88.877 57.406,-181.46 73.051,-275.834c1.566,-9.421 3.174,-18.835 4.858,-28.235c11.562,-65.475 11.391,-131.124 11.519,-197.414c0.016,-4.49 0.031,-8.98 0.048,-13.607c0.13,-73.235 -4.606,-143.847 -18.798,-215.821c-0.89,-4.537 -1.78,-9.074 -2.697,-13.749c-57.504,-284.156 -207.828,-561.136 -442.355,-738.334c-5.036,-3.904 -10.071,-7.811 -15.104,-11.719c-191.191,-147.19 -427.836,-245.41 -671.566,-247.607c-5.664,-0.061 -5.664,-0.061 -11.442,-0.124c-86.803,-0.744 -170.564,1.086 -256.055,17.783Z" style="fill:#c59753;fill-rule:nonzero;"/><path d="M1989.655,3974.184c3.36,3.438 6.721,6.876 10.183,10.419c3.679,3.722 7.358,7.444 11.149,11.279c3.765,3.937 7.53,7.874 11.41,11.93c3.862,3.905 7.724,7.81 11.702,11.833c28.402,29.071 28.402,29.071 28.402,38.688c-2.467,0.5 -4.933,1 -7.475,1.516c-140.441,28.765 -330.283,74.465 -416.63,201.056c-22.617,36.893 -27.451,71.367 -21.729,114.095c16.862,65.222 74.451,107.909 129.24,141.032c21.671,12.597 43.996,23.718 66.709,34.3c5.317,2.481 10.617,4.998 15.898,7.556c122.145,59.177 270.343,93.207 405.031,107.281c12.288,1.497 12.288,1.497 24.788,5.664c5.501,0.784 11.026,1.415 16.558,1.937c3.314,0.32 6.629,0.64 10.044,0.969c5.371,0.495 5.371,0.495 10.85,1c5.592,0.531 5.592,0.531 11.298,1.073c7.919,0.749 15.838,1.491 23.758,2.227c11.925,1.108 23.847,2.239 35.77,3.373c18.956,1.794 37.917,3.526 56.883,5.21c8.363,0.746 16.724,1.519 25.085,2.299c46.659,3.92 93.436,3.571 140.225,3.527c6.758,-0.002 6.758,-0.002 13.653,-0.003c77.273,-0.089 153.883,-2.389 230.878,-9.111c5.122,-0.446 10.244,-0.893 15.521,-1.353c66.308,-6.011 131.61,-15.264 196.979,-27.814c4.193,-0.784 8.386,-1.568 12.705,-2.376c155.765,-29.192 339.436,-67.704 462.636,-174.577c7.992,-6.38 7.992,-6.38 20.492,-10.547c2.954,-5.464 5.718,-11.033 8.333,-16.667c3.785,-4.362 7.699,-8.614 11.719,-12.76c24.8,-28.083 39.802,-65.548 39.176,-103.06c-4.831,-49.536 -35.162,-90.259 -71.729,-121.68c-88.761,-70.756 -200.889,-113.446 -310.661,-138.314c-23.217,-5.429 -45.814,-12.715 -68.506,-20.02c9.576,-21.266 25.059,-36.56 40.885,-53.385c4.33,-5.007 4.33,-5.007 8.748,-10.116c13.108,-13.769 22.697,-23.101 41.967,-25.633c14.292,0.856 27.7,2.964 41.733,5.8c6.942,1.291 6.942,1.291 14.025,2.607c14.775,2.975 29.397,6.358 44.048,9.893c2.652,0.631 5.304,1.262 8.036,1.912c92.332,22.023 183.781,48.847 271.391,85.588c3.756,1.572 7.513,3.145 11.383,4.765c71.014,30.122 138.386,65.276 196.95,116.069c4.246,3.352 4.246,3.352 8.577,6.771c42.138,34.17 78.853,85.184 90.902,138.542c0.296,5.724 0.451,11.456 0.521,17.188c0.252,4.324 0.505,8.647 0.765,13.102c2.493,68.528 -23.202,125.344 -68.994,175.439c-7.693,8.119 -15.531,16.041 -23.438,23.958c-2.852,2.9 -5.704,5.801 -8.643,8.789c-140.274,133.384 -355.69,193.337 -539.233,234.676c-12.892,2.919 -25.732,6.042 -38.582,9.139c-33.741,7.683 -67.75,14.031 -101.786,20.245c-7.645,1.399 -15.287,2.815 -22.925,4.252c-105.356,19.704 -213.518,31.73 -320.683,34.666c-11.691,0.342 -22.687,1.312 -34.349,2.799c-26.69,3.035 -53.4,2.936 -80.235,3.092c-2.835,0.02 -5.671,0.04 -8.592,0.061c-21.675,0.151 -43.349,0.215 -65.025,0.249c-3.189,0.007 -6.378,0.013 -9.663,0.02c-89.161,0.158 -177.716,-1.691 -266.639,-8.874c-4.338,-0.345 -8.676,-0.69 -13.146,-1.045c-48.578,-3.968 -96.545,-9.784 -144.614,-17.826c-15.75,-2.634 -31.507,-4.623 -47.378,-6.379c-50.296,-5.759 -99.589,-16.465 -149.03,-27.094c-3.675,-0.787 -7.349,-1.574 -11.135,-2.385c-76.076,-16.361 -152.088,-33.523 -225.844,-58.553c-5.611,-1.899 -5.611,-1.899 -11.336,-3.837c-87.857,-30.032 -176.535,-63.005 -255.33,-112.83c-4.334,-2.734 -8.669,-5.468 -13.135,-8.285c-27.539,-17.885 -53.345,-37.336 -78.532,-58.382c-4.367,-3.521 -4.367,-3.521 -8.822,-7.113c-47.764,-39.679 -89.99,-99.914 -98.796,-162.809c-5.411,-69.85 15.58,-124.563 60.84,-178.385c28.936,-31.271 60.964,-57.884 96.777,-80.859c4.334,-2.809 8.669,-5.618 13.135,-8.512c31.595,-19.951 64.427,-36.959 98.063,-53.206c3.906,-1.9 7.812,-3.8 11.836,-5.758c23.965,-11.358 47.988,-20.46 73.244,-28.523c11.24,-3.73 22.083,-7.931 33.019,-12.464c22.442,-9.163 45.337,-16.095 68.62,-22.786c4.346,-1.261 8.692,-2.522 13.169,-3.821c29.577,-8.445 59.236,-15.755 89.33,-22.089c16.014,-3.376 31.635,-7.178 47.24,-12.111c75.966,-24.01 75.966,-24.01 100.332,-6.545Z" style="fill:#b18445;fill-rule:nonzero;"/><path d="M2133.333,1391.667c7.763,6.401 15.325,13.05 22.689,19.906c2.096,1.951 4.192,3.902 6.352,5.912c29.594,27.792 58.026,56.795 86.584,85.641c11.25,11.362 22.515,22.71 33.789,34.049c2.496,2.531 4.993,5.062 7.565,7.67c12.182,12.251 24.548,23.997 37.678,35.23c20.91,18.078 40.248,37.697 59.702,57.306c6.863,6.917 13.739,13.819 20.619,20.719c17.071,17.127 34.12,34.276 51.169,51.425c14.457,14.539 28.922,29.07 43.399,43.589c6.72,6.746 13.426,13.505 20.133,20.265c19.793,19.891 39.76,39.312 61.096,57.566c21.634,18.766 41.741,39.296 62.105,59.416c5.638,5.548 11.302,11.07 16.992,16.565c45.859,44.309 82.604,84.434 83.929,151.409c0.126,57.464 -21.231,95.007 -60.588,134.948c-11.331,11.34 -22.756,22.581 -34.204,33.802c-6.971,6.855 -13.935,13.716 -20.886,20.59c-4.292,4.242 -8.595,8.473 -12.912,12.69c-10.936,10.787 -21.261,21.854 -31.228,33.545c-18.87,21.641 -39.094,41.885 -59.361,62.206c-4.254,4.281 -8.508,8.562 -12.761,12.844c-13.85,13.937 -27.722,27.853 -41.595,41.767c-4.801,4.818 -9.603,9.637 -14.404,14.455c-22.546,22.625 -45.102,45.24 -67.67,67.843c-25.961,26.002 -51.888,52.039 -77.786,78.104c-20.092,20.218 -40.216,40.403 -60.364,60.565c-12.003,12.013 -23.992,24.039 -35.947,36.099c-11.243,11.34 -22.525,22.64 -33.838,33.91c-4.124,4.122 -8.235,8.259 -12.329,12.411c-37.937,38.439 -74.841,66.032 -130.638,66.616c-42.358,-0.664 -76.594,-13.588 -107.292,-43.229c-25.841,-30.528 -40.321,-66.882 -38.688,-107.145c5.976,-47.887 29.881,-81.89 63.58,-114.933c2.842,-2.837 5.683,-5.674 8.611,-8.596c9.322,-9.292 18.687,-18.54 28.053,-27.789c6.536,-6.502 13.069,-13.007 19.599,-19.515c17.155,-17.084 34.346,-34.132 51.546,-51.171c27.505,-27.258 54.957,-54.568 82.406,-81.882c9.55,-9.492 19.116,-18.969 28.685,-28.442c5.913,-5.871 11.825,-11.742 17.737,-17.614c2.629,-2.594 5.257,-5.188 7.966,-7.861c15.66,-15.583 30.4,-31.721 44.842,-48.438c7.555,-8.659 15.437,-16.889 23.577,-25c3.001,-3.001 6.002,-6.001 9.094,-9.093c3.131,-3.109 6.261,-6.218 9.486,-9.421c3.288,-3.282 6.576,-6.564 9.964,-9.946c10.39,-10.366 20.794,-20.718 31.198,-31.069c7.095,-7.074 14.188,-14.148 21.281,-21.224c17.288,-17.242 34.587,-34.472 51.896,-51.693c-3.945,-4.663 -7.899,-9.318 -11.856,-13.971c-2.201,-2.593 -4.402,-5.187 -6.669,-7.859c-8.541,-9.679 -17.871,-18.095 -27.569,-26.608c-29.5,-26.345 -57.133,-54.559 -84.897,-82.709c-18.269,-18.445 -36.739,-36.164 -56.448,-53.054c-20.334,-18.087 -39.037,-37.966 -58.118,-57.353c-17.63,-17.801 -35.527,-34.816 -54.533,-51.131c-18.416,-16.344 -35.351,-34.272 -52.596,-51.831c-16.628,-16.81 -33.61,-32.808 -51.518,-48.244c-100.038,-87.306 -100.038,-87.306 -105.123,-153.497c-0.957,-45.443 5.665,-74.379 35.368,-109.212c57.253,-59.689 134.246,-65.694 203.125,-19.531Z" style="fill:#f5e6c8;fill-rule:nonzero;"/><path d="M2760.093,2525.998c5.851,-0.027 11.702,-0.065 17.553,-0.112c15.738,-0.095 31.471,-0.035 47.209,0.06c16.552,0.079 33.104,0.032 49.656,0.005c27.774,-0.026 55.546,0.049 83.32,0.186c32.02,0.156 64.036,0.149 96.056,0.054c30.933,-0.088 61.865,-0.057 92.798,0.026c13.107,0.033 26.214,0.025 39.321,-0.017c15.453,-0.044 30.903,0.016 46.356,0.153c8.311,0.05 16.622,-0.001 24.933,-0.056c36.552,0.47 65.974,6.437 93.279,32.061c29.673,31.842 36.821,61.059 36.927,104.142c-2.132,27.352 -15.094,50.658 -33.333,70.833c-26.881,20.267 -49.319,29.629 -82.836,29.808c-7.517,0.054 -7.517,0.054 -15.185,0.109c-5.485,0.018 -10.97,0.035 -16.621,0.054c-5.846,0.033 -11.692,0.067 -17.538,0.103c-19.188,0.109 -38.377,0.173 -57.565,0.232c-6.618,0.022 -13.237,0.045 -19.855,0.067c-27.544,0.09 -55.088,0.168 -82.633,0.215c-39.403,0.068 -78.805,0.206 -118.207,0.443c-27.743,0.162 -55.486,0.243 -83.229,0.265c-16.55,0.015 -33.099,0.065 -49.649,0.2c-15.589,0.126 -31.175,0.151 -46.765,0.103c-8.391,-0.001 -16.782,0.1 -25.173,0.206c-36.822,-0.251 -65.98,-6.138 -93.648,-31.699c-30.305,-31.993 -34.959,-58.398 -33.933,-101.783c2.505,-32.045 14.407,-56.315 38.672,-77.49c36.141,-23.675 67.558,-28.622 110.093,-28.169Z" style="fill:#f3e4c4;fill-rule:nonzero;"/></svg>