<?xml version="1.0" encoding="UTF-8" standalone="no"?>
<!DOCTYPE svg PUBLIC "-//W3C//DTD SVG 1.1//EN" "http://www.w3.org/Graphics/SVG/1.1/DTD/svg11.dtd">
<svg width="100%" height="100%" viewBox="0 0 3299 4140" version="1.1" xmlns="http://www.w3.org/2000/svg" xmlns:xlink="http://www.w3.org/1999/xlink" xml:space="preserve" xmlns:serif="http://www.serif.com/" style="fill-rule:evenodd;clip-rule:evenodd;stroke-linejoin:round;stroke-miterlimit:2;">
    <g transform="matrix(1,0,0,1,-960.590437,-339.525103)">
        <path d="M2609.107,339.593C2617.55,339.583 2625.992,339.556 2634.435,339.527C2735.078,339.388 2833.639,346.869 2932.031,368.49C2937.778,369.702 2943.526,370.909 2949.275,372.111C2966.221,375.689 2983.119,379.456 2999.999,383.333C3002.781,383.97 3005.564,384.608 3008.43,385.265C3049.616,394.82 3089.384,406.934 3129.165,421.354C3131.922,422.344 3134.679,423.335 3137.519,424.355C3216.071,452.604 3292.601,483.585 3365.727,524.068C3374.784,529.048 3383.902,533.89 3393.048,538.704C3509.754,600.837 3615.346,681.626 3712.498,770.833C3714.851,772.976 3717.204,775.119 3719.629,777.327C3752.998,807.754 3785.149,838.589 3814.994,872.532C3821.27,879.665 3827.602,886.746 3833.933,893.831C3963.578,1039.97 4064.724,1213.274 4134.155,1395.485C4137.095,1403.122 4140.175,1410.705 4143.276,1418.278C4157.187,1452.552 4167.124,1487.705 4176.967,1523.307C4181.458,1539.538 4186.403,1555.57 4191.518,1571.614C4200.989,1602.225 4208.014,1633.25 4214.581,1664.583C4215.206,1667.539 4215.831,1670.495 4216.474,1673.541C4228.419,1730.399 4237.474,1787.378 4244.27,1845.099C4245.237,1853.304 4246.243,1861.504 4247.31,1869.696C4299.73,2272.776 4176.568,2711.472 3912.498,3095.833C3910.786,3098.177 3909.074,3100.521 3907.31,3102.935C3876.566,3144.97 3843.903,3185.117 3808.82,3223.599C3800.87,3232.37 3793.121,3241.274 3785.415,3250.259C3771.809,3265.912 3757.189,3280.377 3742.43,3294.937C3734.249,3303.235 3726.578,3311.72 3719.009,3320.572C3704.396,3337.627 3688.51,3353.217 3672.541,3368.993C3661.38,3380.299 3651.057,3392.115 3640.738,3404.182C3629.375,3416.944 3617.107,3428.758 3604.947,3440.754C3596.677,3449.142 3588.912,3457.726 3581.249,3466.665C3567.7,3482.472 3553.094,3496.973 3538.28,3511.587C3530.01,3519.975 3522.245,3528.559 3514.582,3537.498C3503.97,3549.879 3492.858,3561.462 3481.249,3572.915C3469.897,3584.114 3459.03,3595.407 3448.697,3607.55C3435.937,3622.452 3422.279,3636.222 3408.332,3649.998C3394.733,3663.431 3381.381,3676.811 3369.009,3691.404C3355.831,3706.913 3341.541,3721.117 3327.082,3735.414C3305.849,3756.408 3305.849,3756.408 3285.936,3778.643C3268.904,3798.756 3249.858,3816.904 3231.148,3835.433C3215.624,3850.864 3200.783,3866.509 3186.669,3883.249C3174.24,3897.187 3160.797,3910.114 3147.515,3923.233C3133.536,3937.107 3120.426,3951.412 3107.665,3966.419C3097.895,3977.351 3087.514,3987.621 3077.082,3997.913C3064.36,4010.464 3051.912,4023.061 3040.363,4036.715C3026.378,4053.138 3011.152,4068.169 2995.832,4083.33C2973.27,4105.599 2973.27,4105.599 2952.082,4129.163C2936.035,4148.157 2918.138,4165.292 2900.48,4182.767C2885.595,4197.557 2871.474,4212.628 2857.925,4228.658C2844.478,4243.652 2829.973,4257.601 2815.655,4271.758C2803.724,4283.607 2792.128,4295.491 2781.248,4308.329C2765.987,4326.337 2749.12,4342.648 2732.35,4359.229C2717.764,4373.714 2703.959,4388.547 2690.672,4404.243C2677.863,4418.642 2663.949,4431.951 2650.161,4445.405C2641.493,4453.457 2641.493,4453.457 2637.498,4462.495L2629.165,4462.495C2626.415,4467.995 2623.665,4473.495 2620.832,4479.162C2605.833,4479.162 2602.68,4474.966 2592.417,4464.77C2590.386,4462.687 2588.354,4460.604 2586.261,4458.458C2583.062,4455.247 2583.062,4455.247 2579.798,4451.971C2575.273,4447.418 2570.762,4442.849 2566.266,4438.267C2559.486,4431.359 2552.664,4424.494 2545.831,4417.637C2525.18,4396.829 2505.018,4375.783 2485.947,4353.501C2473.268,4339.157 2459.492,4325.893 2445.831,4312.494C2429.337,4296.316 2413.12,4280.146 2398.045,4262.624C2382.242,4244.277 2365.183,4227.369 2347.915,4210.41C2330.735,4193.537 2313.748,4176.728 2298.045,4158.457C2281.615,4139.361 2263.785,4121.813 2245.831,4104.16C2225.123,4083.799 2205.094,4063.281 2186.163,4041.253C2174.709,4028.281 2162.358,4016.26 2149.998,4004.16C2132.356,3986.721 2115.338,3969.173 2099.314,3950.221C2086.819,3936.237 2073.334,3923.248 2059.996,3910.073C2048.646,3898.808 2037.691,3887.461 2027.341,3875.253C2014.163,3859.744 1999.873,3845.54 1985.414,3831.243C1957.133,3803.278 1957.133,3803.278 1944.268,3788.014C1929.778,3770.903 1913.832,3755.341 1897.914,3739.576C1879.815,3721.652 1862.245,3703.73 1845.831,3684.237C1830.703,3667.454 1814.426,3651.761 1798.297,3635.946C1785.185,3623.012 1772.567,3609.914 1760.545,3595.956C1745.37,3578.358 1729.08,3562.09 1712.498,3545.826C1693.17,3526.868 1674.683,3507.617 1657.013,3487.102C1646.199,3474.858 1634.594,3463.487 1622.915,3452.076C1608.622,3437.96 1594.486,3423.942 1581.509,3408.586C1567.725,3392.314 1552.644,3377.481 1537.499,3362.492C1519.957,3345.132 1503.031,3327.688 1487.092,3308.83C1475.909,3296.361 1463.988,3284.684 1452.082,3272.909C1432.43,3253.428 1413.709,3233.627 1395.832,3212.492C1392.266,3208.464 1388.699,3204.435 1385.025,3200.285C1147.227,2930.556 994.983,2561.717 966.666,2204.159C966.425,2201.187 966.184,2198.216 965.936,2195.154C936.567,1809.783 1027.222,1424.024 1262.5,1054.159C1265.94,1049.009 1269.374,1043.855 1272.803,1038.697C1309.152,984.383 1349.576,933.767 1394.108,885.93C1402.103,877.236 1409.842,868.429 1417.546,859.481C1434.861,839.634 1453.248,820.946 1471.875,802.336C1475.374,798.837 1478.873,795.339 1482.478,791.734C1503.623,770.783 1524.931,751.112 1548.438,732.837C1558.601,724.78 1567.909,716.177 1577.344,707.284C1724.52,573.593 1917.323,480.806 2103.906,417.701C2107.507,416.476 2111.108,415.25 2114.818,413.988C2134.627,407.395 2154.269,401.997 2174.7,397.713C2187.477,394.92 2199.941,391.133 2212.5,387.493C2343.457,351.899 2473.751,339.715 2609.107,339.586L2609.107,339.593Z" style="fill:rgb(27,31,40);fill-rule:nonzero;"/>
    </g>
</svg>
