<?xml version="1.0" encoding="UTF-8" standalone="no"?>
<!DOCTYPE svg PUBLIC "-//W3C//DTD SVG 1.1//EN" "http://www.w3.org/Graphics/SVG/1.1/DTD/svg11.dtd">
<svg width="100%" height="100%" viewBox="0 0 3299 4546" version="1.1" xmlns="http://www.w3.org/2000/svg" xmlns:xlink="http://www.w3.org/1999/xlink" xml:space="preserve" xmlns:serif="http://www.serif.com/" style="fill-rule:evenodd;clip-rule:evenodd;stroke-linejoin:round;stroke-miterlimit:2;">
    <g transform="matrix(1,0,0,1,-960.590437,-339.525103)">
        <path d="M2609.107,339.593C2617.55,339.583 2625.992,339.556 2634.435,339.527C2735.078,339.388 2833.639,346.869 2932.031,368.49C2937.778,369.702 2943.526,370.909 2949.275,372.111C2966.221,375.689 2983.119,379.456 2999.999,383.333C3002.781,383.97 3005.564,384.608 3008.43,385.265C3049.616,394.82 3089.384,406.934 3129.165,421.354C3131.922,422.344 3134.679,423.335 3137.519,424.355C3216.071,452.604 3292.601,483.585 3365.727,524.068C3374.784,529.048 3383.902,533.89 3393.048,538.704C3509.754,600.837 3615.346,681.626 3712.498,770.833C3714.851,772.976 3717.204,775.119 3719.629,777.327C3752.998,807.754 3785.149,838.589 3814.994,872.532C3821.27,879.665 3827.602,886.746 3833.933,893.831C3963.578,1039.97 4064.724,1213.274 4134.155,1395.485C4137.095,1403.122 4140.175,1410.705 4143.276,1418.278C4157.187,1452.552 4167.124,1487.705 4176.967,1523.307C4181.458,1539.538 4186.403,1555.57 4191.518,1571.614C4200.989,1602.225 4208.014,1633.25 4214.581,1664.583C4215.206,1667.539 4215.831,1670.495 4216.474,1673.541C4228.419,1730.399 4237.474,1787.378 4244.27,1845.099C4245.237,1853.304 4246.243,1861.504 4247.31,1869.696C4299.73,2272.776 4176.568,2711.472 3912.498,3095.833C3910.786,3098.177 3909.074,3100.521 3907.31,3102.935C3876.566,3144.97 3843.903,3185.117 3808.82,3223.599C3800.87,3232.37 3793.121,3241.274 3785.415,3250.259C3771.809,3265.912 3757.189,3280.377 3742.43,3294.937C3734.249,3303.235 3726.578,3311.72 3719.009,3320.572C3704.396,3337.627 3688.51,3353.217 3672.541,3368.993C3661.38,3380.299 3651.057,3392.115 3640.738,3404.182C3629.375,3416.944 3617.107,3428.758 3604.947,3440.754C3596.677,3449.142 3588.912,3457.726 3581.249,3466.665C3567.7,3482.472 3553.094,3496.973 3538.28,3511.587C3530.01,3519.975 3522.245,3528.559 3514.582,3537.498C3503.97,3549.879 3492.858,3561.462 3481.249,3572.915C3469.897,3584.114 3459.03,3595.407 3448.697,3607.55C3435.937,3622.452 3422.279,3636.222 3408.332,3649.998C3394.733,3663.431 3381.381,3676.811 3369.009,3691.404C3355.831,3706.913 3341.541,3721.117 3327.082,3735.414C3305.849,3756.408 3305.849,3756.408 3285.936,3778.643C3268.904,3798.756 3249.858,3816.904 3231.148,3835.433C3215.624,3850.864 3200.783,3866.509 3186.669,3883.249C3174.24,3897.187 3160.797,3910.114 3147.515,3923.233C3133.536,3937.107 3120.426,3951.412 3107.665,3966.419C3097.895,3977.351 3087.514,3987.621 3077.082,3997.913C3064.36,4010.464 3051.912,4023.061 3040.363,4036.715C3026.378,4053.138 3011.152,4068.169 2995.832,4083.33C2973.27,4105.599 2973.27,4105.599 2952.082,4129.163C2936.035,4148.157 2918.138,4165.292 2900.48,4182.767C2885.595,4197.557 2871.474,4212.628 2857.925,4228.658C2844.478,4243.652 2829.973,4257.601 2815.655,4271.758C2803.724,4283.607 2792.128,4295.491 2781.248,4308.329C2765.987,4326.337 2749.12,4342.648 2732.35,4359.229C2717.764,4373.714 2703.959,4388.547 2690.672,4404.243C2677.863,4418.642 2663.949,4431.951 2650.161,4445.405C2641.493,4453.457 2641.493,4453.457 2637.498,4462.495L2629.165,4462.495C2626.415,4467.995 2623.665,4473.495 2620.832,4479.162C2605.833,4479.162 2602.68,4474.966 2592.417,4464.77C2590.386,4462.687 2588.354,4460.604 2586.261,4458.458C2583.062,4455.247 2583.062,4455.247 2579.798,4451.971C2575.273,4447.418 2570.762,4442.849 2566.266,4438.267C2559.486,4431.359 2552.664,4424.494 2545.831,4417.637C2525.18,4396.829 2505.018,4375.783 2485.947,4353.501C2473.268,4339.157 2459.492,4325.893 2445.831,4312.494C2429.337,4296.316 2413.12,4280.146 2398.045,4262.624C2382.242,4244.277 2365.183,4227.369 2347.915,4210.41C2330.735,4193.537 2313.748,4176.728 2298.045,4158.457C2281.615,4139.361 2263.785,4121.813 2245.831,4104.16C2225.123,4083.799 2205.094,4063.281 2186.163,4041.253C2174.709,4028.281 2162.358,4016.26 2149.998,4004.16C2132.356,3986.721 2115.338,3969.173 2099.314,3950.221C2086.819,3936.237 2073.334,3923.248 2059.996,3910.073C2048.646,3898.808 2037.691,3887.461 2027.341,3875.253C2014.163,3859.744 1999.873,3845.54 1985.414,3831.243C1957.133,3803.278 1957.133,3803.278 1944.268,3788.014C1929.778,3770.903 1913.832,3755.341 1897.914,3739.576C1879.815,3721.652 1862.245,3703.73 1845.831,3684.237C1830.703,3667.454 1814.426,3651.761 1798.297,3635.946C1785.185,3623.012 1772.567,3609.914 1760.545,3595.956C1745.37,3578.358 1729.08,3562.09 1712.498,3545.826C1693.17,3526.868 1674.683,3507.617 1657.013,3487.102C1646.199,3474.858 1634.594,3463.487 1622.915,3452.076C1608.622,3437.96 1594.486,3423.942 1581.509,3408.586C1567.725,3392.314 1552.644,3377.481 1537.499,3362.492C1519.957,3345.132 1503.031,3327.688 1487.092,3308.83C1475.909,3296.361 1463.988,3284.684 1452.082,3272.909C1432.43,3253.428 1413.709,3233.627 1395.832,3212.492C1392.266,3208.464 1388.699,3204.435 1385.025,3200.285C1147.227,2930.556 994.983,2561.717 966.666,2204.159C966.425,2201.187 966.184,2198.216 965.936,2195.154C936.567,1809.783 1027.222,1424.024 1262.5,1054.159C1265.94,1049.009 1269.374,1043.855 1272.803,1038.697C1309.152,984.383 1349.576,933.767 1394.108,885.93C1402.103,877.236 1409.842,868.429 1417.546,859.481C1434.861,839.634 1453.248,820.946 1471.875,802.336C1475.374,798.837 1478.873,795.339 1482.478,791.734C1503.623,770.783 1524.931,751.112 1548.438,732.837C1558.601,724.78 1567.909,716.177 1577.344,707.284C1724.52,573.593 1917.323,480.806 2103.906,417.701C2107.507,416.476 2111.108,415.25 2114.818,413.988C2134.627,407.395 2154.269,401.997 2174.7,397.713C2187.477,394.92 2199.941,391.133 2212.5,387.493C2343.457,351.899 2473.751,339.715 2609.107,339.586L2609.107,339.593ZM2395.833,833.333C2391.038,834.248 2386.243,835.163 2381.303,836.106C2189.092,873.609 2009.23,958.255 1858.333,1083.333C1856.08,1085.163 1853.827,1086.993 1851.505,1088.879C1793.525,1136.035 1737.333,1188.789 1691.455,1247.916C1682.556,1259.33 1673.063,1270.09 1663.542,1280.989C1560.502,1404.765 1484.027,1564.864 1445.834,1720.833C1444.707,1725.294 1443.579,1729.756 1442.418,1734.352C1433.102,1771.369 1424.552,1808.489 1416.667,1845.833C1415.219,1852.673 1415.219,1852.673 1413.741,1859.651C1387.153,1991.893 1389.236,2142.32 1412.5,2274.999C1413.396,2280.189 1414.293,2285.38 1415.216,2290.728C1435.599,2405.996 1469.091,2519.747 1520.833,2624.999C1523.5,2630.597 1526.163,2636.196 1528.825,2641.796C1569.141,2725.545 1619.355,2803.805 1679.167,2874.999C1680.88,2877.06 1682.594,2879.121 1684.359,2881.245C1709.854,2911.857 1736.33,2941.477 1763.542,2970.572C1766.246,2973.478 1768.951,2976.384 1771.737,2979.378C1787.643,2996.235 1804.146,3011.874 1821.743,3026.957C1830.611,3034.572 1839.114,3042.542 1847.656,3050.52C2007.245,3194.028 2213.19,3297.567 2425,3333.332C2429.758,3334.145 2429.758,3334.145 2434.613,3334.974C2482.735,3343.076 2530.382,3348.593 2579.167,3349.999C2584.511,3350.171 2589.855,3350.343 2595.362,3350.52C2866.494,3354.769 3127.218,3256.713 3337.501,3087.499C3341.776,3084.083 3346.052,3080.667 3350.457,3077.147C3383.828,3049.813 3414.494,3019.712 3445.053,2989.321C3447.087,2987.309 3449.12,2985.298 3451.215,2983.225C3479.125,2955.548 3504.835,2926.715 3529.167,2895.831C3532.724,2891.395 3532.724,2891.395 3536.352,2886.87C3613.869,2789.784 3674.746,2681.908 3720.834,2566.664C3722.002,2563.802 3723.17,2560.94 3724.374,2557.991C3760.505,2469.114 3781.78,2376.531 3797.425,2282.157C3798.991,2272.736 3800.599,2263.322 3802.283,2253.922C3813.845,2188.447 3813.674,2122.798 3813.802,2056.508C3813.818,2052.018 3813.833,2047.528 3813.85,2042.901C3813.98,1969.666 3809.244,1899.054 3795.052,1827.08C3794.162,1822.543 3793.272,1818.006 3792.355,1813.331C3734.851,1529.175 3584.527,1252.195 3350,1074.997C3344.964,1071.093 3339.929,1067.186 3334.896,1063.278C3143.705,916.088 2907.06,817.868 2663.33,815.671C2657.666,815.61 2657.666,815.61 2651.888,815.547C2565.085,814.803 2481.324,816.633 2395.833,833.33L2395.833,833.333Z" style="fill:rgb(197,151,83);fill-rule:nonzero;"/>
        <path d="M1989.655,3974.184C1993.015,3977.622 1996.376,3981.06 1999.838,3984.603C2003.517,3988.325 2007.196,3992.047 2010.987,3995.882C2014.752,3999.819 2018.517,4003.756 2022.397,4007.812C2026.259,4011.717 2030.121,4015.622 2034.099,4019.645C2062.501,4048.716 2062.501,4048.716 2062.501,4058.333C2060.034,4058.833 2057.568,4059.333 2055.026,4059.849C1914.585,4088.614 1724.743,4134.314 1638.396,4260.905C1615.779,4297.798 1610.945,4332.272 1616.667,4375C1633.529,4440.222 1691.118,4482.909 1745.907,4516.032C1767.578,4528.629 1789.903,4539.75 1812.616,4550.332C1817.933,4552.813 1823.233,4555.33 1828.514,4557.888C1950.659,4617.065 2098.857,4651.095 2233.545,4665.169C2245.833,4666.666 2245.833,4666.666 2258.333,4670.833C2263.834,4671.617 2269.359,4672.248 2274.891,4672.77C2278.205,4673.09 2281.52,4673.41 2284.935,4673.739C2290.306,4674.234 2290.306,4674.234 2295.785,4674.739C2301.377,4675.27 2301.377,4675.27 2307.083,4675.812C2315.002,4676.561 2322.921,4677.303 2330.841,4678.039C2342.766,4679.147 2354.688,4680.278 2366.611,4681.412C2385.567,4683.206 2404.528,4684.938 2423.494,4686.622C2431.857,4687.368 2440.218,4688.141 2448.579,4688.921C2495.238,4692.841 2542.015,4692.492 2588.804,4692.448C2595.562,4692.446 2595.562,4692.446 2602.457,4692.445C2679.73,4692.356 2756.34,4690.056 2833.335,4683.334C2838.457,4682.888 2843.579,4682.441 2848.856,4681.981C2915.164,4675.97 2980.466,4666.717 3045.835,4654.167C3050.028,4653.383 3054.221,4652.599 3058.54,4651.791C3214.305,4622.599 3397.976,4584.087 3521.176,4477.214C3529.168,4470.834 3529.168,4470.834 3541.668,4466.667C3544.622,4461.203 3547.386,4455.634 3550.001,4450C3553.786,4445.638 3557.7,4441.386 3561.72,4437.24C3586.52,4409.157 3601.522,4371.692 3600.896,4334.18C3596.065,4284.644 3565.734,4243.921 3529.167,4212.5C3440.406,4141.744 3328.278,4099.054 3218.506,4074.186C3195.289,4068.757 3172.692,4061.471 3150,4054.166C3159.576,4032.9 3175.059,4017.606 3190.885,4000.781C3195.215,3995.774 3195.215,3995.774 3199.633,3990.665C3212.741,3976.896 3222.33,3967.564 3241.6,3965.032C3255.892,3965.888 3269.3,3967.996 3283.333,3970.832C3290.275,3972.123 3290.275,3972.123 3297.358,3973.439C3312.133,3976.414 3326.755,3979.797 3341.406,3983.332C3344.058,3983.963 3346.71,3984.594 3349.442,3985.244C3441.774,4007.267 3533.223,4034.091 3620.833,4070.832C3624.589,4072.404 3628.346,4073.977 3632.216,4075.597C3703.23,4105.719 3770.602,4140.873 3829.166,4191.666C3833.412,4195.018 3833.412,4195.018 3837.743,4198.437C3879.881,4232.607 3916.596,4283.621 3928.645,4336.979C3928.941,4342.703 3929.096,4348.435 3929.166,4354.167C3929.418,4358.491 3929.671,4362.814 3929.931,4367.269C3932.424,4435.797 3906.729,4492.613 3860.937,4542.708C3853.244,4550.827 3845.406,4558.749 3837.499,4566.666C3834.647,4569.566 3831.795,4572.467 3828.856,4575.455C3688.582,4708.839 3473.166,4768.792 3289.623,4810.131C3276.731,4813.05 3263.891,4816.173 3251.041,4819.27C3217.3,4826.953 3183.291,4833.301 3149.255,4839.515C3141.61,4840.914 3133.968,4842.33 3126.33,4843.767C3020.974,4863.471 2912.812,4875.497 2805.647,4878.433C2793.956,4878.775 2782.96,4879.745 2771.298,4881.232C2744.608,4884.267 2717.898,4884.168 2691.063,4884.324C2688.228,4884.344 2685.392,4884.364 2682.471,4884.385C2660.796,4884.536 2639.122,4884.6 2617.446,4884.634C2614.257,4884.641 2611.068,4884.647 2607.783,4884.654C2518.622,4884.812 2430.067,4882.963 2341.144,4875.78C2336.806,4875.435 2332.468,4875.09 2327.998,4874.735C2279.42,4870.767 2231.453,4864.951 2183.384,4856.909C2167.634,4854.275 2151.877,4852.286 2136.006,4850.53C2085.71,4844.771 2036.417,4834.065 1986.976,4823.436C1983.301,4822.649 1979.627,4821.862 1975.841,4821.051C1899.765,4804.69 1823.753,4787.528 1749.997,4762.498C1744.386,4760.599 1744.386,4760.599 1738.661,4758.661C1650.804,4728.629 1562.126,4695.656 1483.331,4645.831C1478.997,4643.097 1474.662,4640.363 1470.196,4637.546C1442.657,4619.661 1416.851,4600.21 1391.664,4579.164C1387.297,4575.643 1387.297,4575.643 1382.842,4572.051C1335.078,4532.372 1292.852,4472.137 1284.046,4409.242C1278.635,4339.392 1299.626,4284.679 1344.886,4230.857C1373.822,4199.586 1405.85,4172.973 1441.663,4149.998C1445.997,4147.189 1450.332,4144.38 1454.798,4141.486C1486.393,4121.535 1519.225,4104.527 1552.861,4088.28C1556.767,4086.38 1560.673,4084.48 1564.697,4082.522C1588.662,4071.164 1612.685,4062.062 1637.941,4053.999C1649.181,4050.269 1660.024,4046.068 1670.96,4041.535C1693.402,4032.372 1716.297,4025.44 1739.58,4018.749C1743.926,4017.488 1748.272,4016.227 1752.749,4014.928C1782.326,4006.483 1811.985,3999.173 1842.079,3992.839C1858.093,3989.463 1873.714,3985.661 1889.319,3980.728C1965.285,3956.718 1965.285,3956.718 1989.651,3974.183L1989.655,3974.184Z" style="fill:rgb(177,132,69);fill-rule:nonzero;"/>
    </g>
</svg>
